<svg xmlns="http://www.w3.org/2000/svg" width="536.307" height="525.004" version="1.1" viewBox="0 0 536.307 525.004" xml:space="preserve"><g fill-opacity="1" display="inline"><g fill-rule="nonzero" stroke="none"><path d="M285.873 523.373c-1.535-.028-3.126-.126-4.771-.136-8.442-.046-16.89-.07-25.342 0a1.63 1.63 0 0 0-.002 0c-6.07.054-12.117-.411-18.175-1.153-.48-.058-.842-.08-1.067-.123-1.133-.222-1.434-.47-1.414-.444.019.025-.124-.259.036-1.375 1.03-7.139 2.047-14.269 3.218-21.357.43-2.597.094-4.738.732-6.46l-.001.003c.2-.539.245-1.276-.042-1.878-.287-.601-.766-.933-1.142-1.121-.75-.374-1.352-.4-1.665-.45-2.697-.454-5.473-1.01-8.358-1.231-3.663-.28-7.306-1.191-11.07-2.012-7.254-1.577-14.431-3.556-21.571-5.71-2.389-.719-4.813-2.185-7.814-2.971-.59-.157-1.062-.29-1.572-.368-.51-.078-1.152-.102-1.792.2-.639.301-1.044.83-1.311 1.3-.266.471-.462.961-.707 1.578-3.331 8.356-7.465 16.485-10.749 25.095v.003c-.358.937-.574 1.078-.5 1.04.075-.038-.22.05-1.215-.183-.6-.14-1.003-.21-1.142-.27a1.63 1.63 0 0 0-.007-.003c-7.004-3.071-14.073-5.855-20.762-9.236-6.882-3.479-13.77-6.763-19.717-11.386a1.63 1.63 0 0 0-.003 0 10.048 10.048 0 0 0-1.81-1.106c-4.286-2.053-8.15-5.02-12.329-7.804-3.285-2.188-6.359-4.804-9.728-7.22-1.044-.75-1.168-1.11-1.13-.889.018.111-.033.155.063-.05.097-.209.333-.595.702-1.107 4.326-6.004 8.739-11.884 13.67-17.31a1.63 1.63 0 0 0 0-.002c1.367-1.505 2.44-3.091 3.58-4.444h-.002c.664-.788 1.163-1.817.969-2.908-.194-1.09-.914-1.808-1.664-2.376-5.57-4.214-10.557-9.283-15.932-14.074-4.585-4.086-8.606-9.01-13.136-13.591-1.663-1.683-2.997-4.089-5.324-6.165a1.63 1.63 0 0 0-2.136-.026c-4.216 3.575-8.702 6.748-13.196 10.008-3.564 2.585-6.595 5.508-10.087 7.524a1.63 1.63 0 0 0-.003 0c-1.408.814-2.167.99-2.467.937-.3-.052-.82-.366-1.735-1.762-2.528-3.862-5.477-7.209-7.91-10.778-5.262-7.722-10.139-15.694-14.892-23.766-2.95-5.006-5.34-10.423-8.102-15.752-1.927-3.715-3.567-7.575-5.123-11.509-.497-1.254-.442-1.764-.395-1.867.045-.101.37-.456 1.624-.879a1.63 1.63 0 0 0 .003 0c9.104-3.076 17.757-7.042 26.603-10.233a1.63 1.63 0 0 0 .005-.003c.799-.29 1.108-.654 1.461-.88a1.63 1.63 0 0 0 .634-1.98c-2.478-6.15-4.417-12.509-6.372-18.924-2.175-7.139-3.85-14.382-5.247-21.723-.416-2.191-.752-4.44-1.195-6.718-.202-1.04-.429-2.045-1.403-2.77-.974-.722-2.083-.616-3.1-.42-7.827 1.51-15.898 2.051-23.99 3.247-1.498.222-3.12.227-4.79.202-.942-.012-1.106-.155-1.022-.078.083.077-.1-.139-.23-1.11-.61-4.58-1.085-9.15-1.126-13.686-.108-11.79.03-23.606-.054-35.44-.04-5.601 1.319-11.335 1.29-17.443 0 .164.252-.293.311-1.353.03-.53.101-.492.106-.496.005 0 .222-.11.752-.07 3.464.27 6.887.443 10.21.885 5.254.703 10.444 1.063 15.432 2.118 1.52.322 2.809.132 3.735.222.964.093 2.063-.045 2.848-.786.786-.74.988-1.662 1.115-2.57 1.379-9.816 3.482-19.472 6.183-29.047 2.019-7.148 4.75-14.089 7.237-21.212.174-.501.323-.896.429-1.357.105-.458.176-1.123-.139-1.774s-.838-.988-1.264-1.215c-.427-.226-.861-.394-1.414-.616-6.533-2.616-13.073-5.186-19.58-7.824-2.083-.843-4.13-1.73-6.056-2.76-.99-.53-1.05-.745-1.012-.615.038.131.019-.298.46-1.392a181.484 181.484 0 0 1 11.942-24.255c5.633-9.546 11.272-19.018 18.248-27.498 1.455-1.768 2.671-3.607 3.956-5.27.783-1.016 1.354-1.868 2.023-2.372.78-.589 1.078-.665 1.044-.663-.032 0 .211.024 1.001.58a177.909 177.909 0 0 1 6.63 4.881c5.092 3.956 10.467 7.281 15.13 11.332.437.378.79.685 1.233.951.442.268 1.12.518 1.82.391.704-.126 1.153-.504 1.495-.832.342-.326.635-.672 1.003-1.093 7.61-8.714 15.505-17.127 24.057-24.844 3.507-3.164 7.431-5.992 11.281-9.018.382-.301.692-.535 1-.836.31-.3.7-.755.81-1.436.115-.682-.125-1.262-.336-1.647-.21-.385-.442-.698-.724-1.092-4.448-6.208-9.409-11.93-14.281-17.656a39.178 39.178 0 0 1-2.58-3.407c-.67-.988-.707-1.396-.69-1.478.015-.083.225-.49 1.245-1.208 6.876-4.839 13.786-9.59 20.914-13.981 8.349-5.149 17.264-9.394 26.083-13.986 2.496-1.3 5.003-2.49 7.606-3.225 3.02-.85 5.126-2.606 7.294-3.157 1.205-.308 1.703-.27 1.665-.284-.038-.015.176.088.646 1.15 2.872 6.494 5.636 13.052 8.47 19.595.76 1.753 1.565 3.465 2.357 5.165.332.712.779 1.552 1.782 1.98 1.003.429 2.001.192 2.966-.188 9.727-3.825 19.896-6.378 30.19-8.702 6.334-1.43 12.956-2.052 19.873-3.662a1.63 1.63 0 0 0 1.245-1.8c-.447-3.41-.744-6.946-1.413-10.495a1.63 1.63 0 0 0-.003 0c-1.056-5.59-1.922-11.156-2.242-16.77-.073-1.28.092-1.656-.015-1.514-.106.14.135-.091 1.398-.3 5.644-.936 11.164-1.794 16.783-1.697 13.14.23 26.25-.043 39.312.126a1.63 1.63 0 0 0 .002 0c4.123.053 8.243.484 12.14 1.64 1.288.38 1.511.63 1.511.633 0 0 .096.565-.106 1.955-1.047 7.176-2.535 14.385-3.176 21.814-.105 1.21-.416 2.523-.671 3.954-.139.78-.19 1.707.4 2.579.59.873 1.64 1.22 2.59 1.264 6.884.323 13.638 2.442 20.716 3.87 7.73 1.561 15.266 3.843 22.55 6.913 2.64 1.113 5.32 1.92 7.95 2.855a1.63 1.63 0 0 0 2.04-.885c2.801-6.44 5.634-12.733 8.27-19.135.845-2.045 1.582-4.103 2.364-6.09.527-1.34.914-1.729.982-1.76.068-.033.556-.098 1.93.4 5.507 2.005 10.87 4.42 16.202 6.989 7.093 3.419 14 7.184 20.556 11.44 6.838 4.437 13.804 8.55 20.189 13.369a153.14 153.14 0 0 1 6.196 4.946 1.63 1.63 0 0 0 .002 0c.65.543.678.78.66.629-.021-.152.05-.03-.438.564-1.641 2.006-3.438 3.96-5.186 6.023-4.54 5.365-8.966 10.827-13.194 16.398a1.63 1.63 0 0 0-.134 1.767c.895 1.633 2.216 2.524 3.13 3.172 9.469 6.719 16.894 15.827 25.188 24.305 2.372 2.423 4.54 5.3 7.252 7.923a1.63 1.63 0 0 0 1.986.217c2.354-1.453 4.27-3.129 6.162-4.637a1355.5 1355.5 0 0 1 13.75-10.818c2.23-1.731 3.382-2.208 3.926-2.149.543.06 1.552.78 3.33 2.928 4.656 5.624 8.557 11.892 12.725 18.082 6.977 10.36 12.78 21.409 17.961 32.835 1.181 2.6 2.47 4.94 3.126 7.382.303 1.122.2 1.522.16 1.59-.039.067-.346.364-1.515.656-2.373.592-4.028 1.884-5.588 2.484-6.667 2.561-13.269 5.257-19.872 7.9-.485.194-.848.4-1.21.57a1.63 1.63 0 0 0-.826 2.051c1.233 3.24 2.39 6.512 3.744 9.75a67.564 67.564 0 0 1 3.44 10.738c1.42 6.07 3.415 11.832 4.192 17.711.465 3.51 1.675 6.508 1.632 9.381-.011.804.218 1.836 1.07 2.423.852.585 1.675.476 2.337.357 1.432-.258 3.041-.36 4.738-.717a1.63 1.63 0 0 0 .003 0c4.468-.945 9.205-1.094 14.027-1.884 3.173-.52 6.002-1.375 8.764-1.254 1.37.06 1.84.242 1.8.21-.042-.033.172.242.39 1.55.81 4.864 1.212 9.8 1.586 14.812.817 10.972.17 22.04.408 33.228.164 7.664-.927 15.347-1.89 23.128-.151 1.228-.429 1.575-.46 1.598-.03.021-.404.166-1.583-.101-8.28-1.883-16.634-2.566-24.855-3.508-1.132-.129-1.995-.235-2.798-.234-.803 0-1.68.127-2.408.712-.728.587-1.032 1.388-1.23 2.162-.198.773-.322 1.64-.497 2.768-1.247 7.978-2.694 15.847-5.086 23.497-1.635 5.237-2.997 10.371-5.42 15.022-.888 1.704-1.121 3.424-1.536 4.78a1.63 1.63 0 0 0 .315 1.532c1.365 1.608 3.166 1.688 3.836 1.956 6.814 2.736 13.644 5.374 20.411 8.127 1.52.618 2.764.819 3.606 1.353 1.083.689 1.448 1.14 1.525 1.356.077.215.094.653-.406 1.795-1.944 4.435-3.89 8.845-6.022 13.138-3.036 6.11-6.099 12.19-9.412 18.102-3.1 5.535-6.657 10.81-10.543 15.877-2.621 3.421-5.035 6.976-7.393 10.527h.003c-.737 1.11-1.685 2.128-2.688 3.22-.583.633-1.703.654-2.11.186v.002c-2.18-2.503-4.847-3.896-7.015-5.498-4.184-3.091-8.288-6.342-12.45-9.55-.745-.573-1.521-1.234-2.418-1.858-.695-.482-1.565-.872-2.555-.764-.988.107-1.82.713-2.435 1.456-7.398 8.943-15.59 17.197-24 25.276-3.336 3.201-6.677 6.345-10.375 9.08a1.63 1.63 0 0 0-.432 2.146c1.941 3.254 4.398 5.883 6.739 8.41 3.189 3.439 5.55 7.825 9.04 11.693v.003c.791.879 1.534 1.862 2.271 2.883a1.63 1.63 0 0 0 .003.002c.59.813.626 1.144.622 1.18-.004.034-.093.322-.819.97-5.443 4.86-11.587 8.89-17.809 12.936-3.824 2.488-7.569 5.002-11.463 7.212-8.568 4.86-17.357 9.306-26.29 13.49-.908.424-1.887.792-2.903 1.168a1.63 1.63 0 0 0-.003 0c-1.098.406-1.556.384-1.632.357-.076-.027-.368-.22-.862-1.264-1.502-3.171-3.092-6.183-4.111-9.31-1-3.062-2.364-5.883-3.724-8.646-1.081-2.194-1.956-4.605-3.069-7.023h.003c-.221-.48-.407-.884-.657-1.287-.248-.402-.605-.877-1.236-1.161-.631-.283-1.33-.22-1.824-.076-.494.144-.904.35-1.393.606-4.463 2.334-9.77 3.147-14.925 5.38-2.759 1.195-5.965 1.701-9.225 2.77-4.078 1.338-8.458 2.042-12.856 3.372-3.92 1.186-8.053 1.852-12.231 2.381-.806.101-1.442.18-2.048.328-.609.148-1.284.395-1.808.996-.523.6-.68 1.354-.71 1.984-.029.628.03 1.254.106 2.04v.003c.57 5.905 1.673 11.66 2.63 17.38.488 2.922.727 5.937.917 8.977a1.63 1.63 0 0 0 0 .002c.07 1.09-.093 1.376.008 1.247.1-.129-.063.066-1.127.202a1.63 1.63 0 0 0-.003 0c-4.025.522-7.609 1.719-11.12 1.481a1.63 1.63 0 0 0-.002-.002c-1.65-.11-3.17.206-4.505.434-1.432.243-2.909.288-4.444.261z" fill="#fff"/><path d="M370.268 21.397c-.649 1.695-1.171 3.174-1.776 4.619-3.217 7.68-6.502 15.332-9.642 23.04-.64 1.57-1.526 1.285-2.569.859-6.781-2.767-13.565-5.515-20.682-7.345-3.833-.984-7.594-2.275-11.458-3.096-6.877-1.462-13.714-3.18-20.75-3.773-1.294-.109-1.748-.586-1.606-2.112.631-6.723 1.728-13.378 2.646-20.06.363-2.64.84-5.263 1.214-7.9.132-.913.104-1.659-1.224-1.868-6.753-1.064-13.535-1.792-20.38-1.808-10.026-.026-20.057.108-30.083-.052-5.489-.088-10.832 1.012-16.254 1.422-2.606.198-2.64.404-2.254 3.177 1.214 8.74 2.373 17.489 3.782 26.197.294 1.824-.366 1.975-1.692 2.183-4.987.787-10.008 1.431-14.94 2.484-12.403 2.648-24.75 5.534-36.512 10.447-2.286.953-2.336.907-3.29-1.293-2.995-6.908-6.35-13.66-8.874-20.772-.66-1.863-1.599-3.627-2.426-5.43-.326-.71-.753-1-1.61-.612-5.687 2.576-11.673 4.467-17.225 7.336-8.008 4.137-16.034 8.228-23.78 12.88-7.071 4.243-13.755 9.032-20.582 13.625-1.74 1.171-1.71 1.287-.383 2.938 5.59 6.953 11.332 13.785 16.676 20.937 2.079 2.784 2.099 2.799-.723 4.856-9.005 6.564-17.054 14.205-24.888 22.087-4.808 4.835-9.077 10.16-13.666 15.294-.645-.427-1.25-.766-1.788-1.193a739.196 739.196 0 0 0-21.94-16.759c-2.37-1.743-2.35-1.767-4.19.442-.19.227-.402.441-.576.681-6.105 8.42-12.26 16.783-17.655 25.714-6.006 9.942-11.298 20.223-16.223 30.717-.91 1.938-.893 2.021 1.044 2.826 5.306 2.207 10.494 4.693 15.917 6.633 3.824 1.368 7.553 3.008 11.338 4.488.925.362 1.736.728 1.117 1.897-1.683 3.176-2.25 6.772-3.707 10.007-3.077 6.826-4.828 14.067-6.7 21.244-2.02 7.743-3.78 15.576-4.49 23.584-.128 1.458-.701 2.166-2.263 1.947-2.749-.382-5.527-.575-8.26-1.042-7.24-1.24-14.6-1.467-21.845-2.641-1.01-.164-1.767-.015-1.705 1.303.022.474-.285.957-.296 1.438-.158 7.012-1.667 13.94-1.237 20.996.17 2.77-.034 5.56.04 8.339.231 8.515-.614 17.056.53 25.548.513 3.801.23 7.696 1.287 11.437 1.9.16 3.603-.52 5.376-.657 8.904-.678 17.717-2.108 26.563-3.272 1.418-.185 1.71.278 1.85 1.477.255 2.164.516 4.336.971 6.46 1.686 7.843 3.243 15.702 5.448 23.442 1.903 6.685 4.59 13.069 6.698 19.664.804 2.51.982 2.507-1.367 3.41-8.232 3.173-16.361 6.605-24.632 9.697-4.608 1.724-4.884.667-2.603 6.154 2.13 5.122 4.774 10.01 7.21 14.99 3.925 8.022 8.47 15.69 13.272 23.206 4.43 6.937 9.414 13.487 14.16 20.202 1.412 1.994 1.745 2.132 3.745.618a2369.657 2369.657 0 0 0 23.166-17.714c1.205-.935 1.98-1.108 2.81.265.202.337.483.627.734.934 6.416 7.835 13.414 15.133 20.808 22.028 4.703 4.385 9.475 8.733 14.693 12.53 1.102.805 1.274 1.41.299 2.578-3.813 4.567-7.497 9.243-11.233 13.873-2.778 3.442-5.565 6.876-8.427 10.413 1.884 1.439 3.565 2.796 5.321 4.047a327.89 327.89 0 0 0 27.526 17.627c10.514 6.017 21.485 11.04 32.695 15.585 1.272.516 1.792.441 2.378-.973 3.517-8.52 7.321-16.922 10.707-25.49 1.397-3.536.951-3.249 4.867-2.173.19.05.353.193.541.247 5.512 1.586 10.622 4.281 16.299 5.494 7.366 1.572 14.599 3.74 22.045 5 4.739.801 9.559 1.14 14.232 2.453-.834 9.917-2.963 19.618-4.04 29.465-.285 2.606-.353 2.71 2.165 3 4.908.569 9.82 1.172 14.776 1.153 4.072-.017 8.145-.014 12.215-.001 12.679.037 25.356.236 37.966-1.6 4.941-.718 4.151-.491 3.54-4.908-1.212-8.73-2.813-17.408-3.83-26.169-.24-2.047-.25-2.092 1.83-2.337 10.95-1.295 21.532-4.278 32.175-6.973 4.53-1.15 8.694-3.322 13.173-4.64 3.03-.894 5.979-2.082 8.938-3.205 2.308-.877 2.264-.913 3.382 1.374 4.017 8.19 7.088 16.787 10.87 25.079 1.077 2.36 1.119 2.506 3.513 1.46a237.652 237.652 0 0 0 11.842-5.545c7.265-3.652 14.306-7.71 21.272-11.912 8.25-4.972 16.11-10.483 23.749-16.332 1.085-.833 1.008-1.38.217-2.373-6.053-7.6-12.017-15.27-18.102-22.847-.85-1.06-.808-1.667.152-2.397 5.928-4.505 11.403-9.515 16.732-14.71 6.823-6.65 13.338-13.57 19.322-20.987.533-.66.89-1.573 1.969-1.836.992 1.224 2.464 1.884 3.71 2.857 6.716 5.244 13.467 10.442 20.208 15.65 1.715 1.324 1.766 1.348 2.985-.315 3.628-4.96 7.297-9.891 10.802-14.936 4.867-7.004 9.386-14.23 13.266-21.833 3.831-7.506 7.684-15.004 10.77-22.858.76-1.932.707-2.061-1.123-2.911-.357-.167-.74-.278-1.11-.426-8.374-3.341-16.752-6.675-25.118-10.037-2.404-.966-2.265-.964-1.504-3.319 2.125-6.588 5.306-12.827 6.592-19.698.202-1.072.332-2.178.697-3.197 2.82-7.882 4.125-16.1 5.424-24.317.29-1.836.39-1.923 2.276-1.731a639.778 639.778 0 0 1 28.337 3.495c2.37.348 2.294.3 2.743-1.878.904-4.396.779-8.872 1.16-13.309.21-2.452.75-4.858.668-7.357-.365-11.285.517-22.584-.56-33.869-.452-4.727-.542-9.49-1.29-14.193-.446-2.812-.527-2.908-3.396-2.563-.296.036-.586.11-.881.151-8.828 1.252-17.657 2.504-26.487 3.745-1.77.249-2.3-.094-2.522-1.935-1.192-9.868-3.988-19.387-6.343-28.999-.588-2.397-1.307-4.762-2.234-7.079-1.648-4.127-3.088-8.34-4.548-12.543-.682-1.963-.615-2.223 1.381-3.137a184.539 184.539 0 0 1 9.576-4.03c6.078-2.377 12.279-4.444 18.222-7.42-2.985-7.501-6.5-14.717-10.262-21.8-3.344-6.296-6.714-12.583-10.872-18.416-2.877-4.034-5.49-8.256-8.335-12.316-1.933-2.76-4.084-5.366-6.097-8.073-.942-1.267-1.868-1.532-3.178-.46-1.686 1.377-3.495 2.604-5.219 3.936a3741.555 3741.555 0 0 0-17.386 13.5c-.697.545-1.159.525-1.733-.14-1.81-2.102-3.783-4.076-5.467-6.273-4.666-6.082-10.281-11.275-15.667-16.658-4.946-4.944-10.402-9.372-15.803-13.77.13-.313.17-.52.286-.674 5.754-7.71 11.874-15.127 18.052-22.497 1.299-1.548 1.33-1.535-.18-2.709-5.165-4.013-10.446-7.856-15.929-11.429-11.478-7.478-23.313-14.322-35.72-20.14-3.748-1.756-7.646-3.19-11.616-4.829M84.793 406.894c-4.288 3.635-8.808 6.835-13.29 10.087-3.439 2.494-6.512 5.467-10.23 7.615-3.004 1.734-4.37 1.733-6.383-1.342-2.443-3.736-5.383-7.076-7.892-10.756-5.292-7.765-10.19-15.768-14.953-23.857-3.014-5.116-5.414-10.56-8.143-15.828-1.965-3.79-3.624-7.7-5.192-11.66-1.111-2.806-.595-3.934 2.225-4.886 8.997-3.04 17.641-7.003 26.573-10.225.36-.13.666-.416 1.143-.72-2.512-6.236-4.463-12.642-6.418-19.057-2.197-7.21-3.886-14.51-5.29-21.894-.426-2.231-.762-4.481-1.196-6.713-.36-1.855-.84-2.239-2.594-1.902-7.959 1.536-16.053 2.077-24.06 3.26-1.659.247-3.366.244-5.05.22-2.104-.029-2.559-.463-2.844-2.604C.585 292.023.1 287.39.06 282.75c-.11-11.814.028-23.632-.055-35.447-.041-5.861 1.319-11.6 1.291-17.453-.002-.48.285-.96.313-1.447.092-1.698 1.12-2.215 2.61-2.1 3.437.265 6.887.44 10.298.894 5.186.693 10.418 1.052 15.555 2.138 1.146.242 2.373.08 3.554.194 1.489.144 1.978-.42 2.193-1.958 1.39-9.896 3.51-19.624 6.23-29.263 2.048-7.252 4.792-14.226 7.265-21.31.705-2.02.75-2.028-1.455-2.91-6.526-2.613-13.069-5.186-19.585-7.826-2.107-.854-4.207-1.764-6.211-2.834-2.178-1.164-2.225-1.755-1.297-4.053a183.127 183.127 0 0 1 12.05-24.475c5.635-9.548 11.314-19.097 18.394-27.703 1.383-1.681 2.59-3.506 3.923-5.23.722-.937 1.36-1.948 2.332-2.68 1.674-1.262 2.225-1.34 3.965-.113a179.538 179.538 0 0 1 6.692 4.927c5 3.884 10.404 7.22 15.2 11.388 1.669 1.45 1.766 1.274 3.253-.427 7.634-8.741 15.574-17.203 24.193-24.981 3.595-3.245 7.55-6.09 11.364-9.089 1.532-1.205 1.555-1.212.433-2.78-4.391-6.126-9.317-11.818-14.196-17.552a40.79 40.79 0 0 1-2.688-3.546c-1.512-2.234-1.325-3.32.964-4.93 6.886-4.846 13.823-9.617 20.998-14.04 8.448-5.208 17.401-9.467 26.187-14.04 2.528-1.318 5.133-2.564 7.915-3.35 2.578-.725 4.7-2.499 7.332-3.17 2.509-.639 3.164-.56 4.202 1.786 2.881 6.512 5.65 13.074 8.48 19.608.744 1.723 1.542 3.425 2.334 5.127.565 1.205 1.07 1.596 2.676.965 9.858-3.876 20.108-6.448 30.428-8.778 6.468-1.46 13.08-2.08 19.862-3.659-.454-3.459-.751-6.963-1.4-10.402-1.063-5.625-1.942-11.262-2.269-16.982-.152-2.66.07-3.073 2.743-3.516C241.785.797 247.407-.085 253.21.016c13.098.227 26.206-.042 39.305.126 4.221.055 8.493.492 12.585 1.703 2.786.827 2.974 1.5 2.553 4.39-1.057 7.24-2.534 14.418-3.165 21.72-.118 1.376-.447 2.735-.689 4.099-.208 1.176.106 1.872 1.461 1.935 7.162.336 13.997 2.493 20.96 3.898 7.832 1.582 15.475 3.897 22.863 7.012 2.535 1.067 5.183 1.867 7.862 2.819 2.808-6.451 5.637-12.735 8.26-19.107.824-1.997 1.557-4.047 2.352-6.066 1.134-2.878 1.993-3.379 4.984-2.291 5.583 2.03 10.997 4.47 16.354 7.05 7.142 3.442 14.11 7.24 20.738 11.542 6.797 4.412 13.797 8.541 20.28 13.432a154.815 154.815 0 0 1 6.263 5.002c1.515 1.27 1.618 2.028.438 3.47-1.682 2.057-3.484 4.018-5.201 6.047-4.527 5.348-8.937 10.788-13.145 16.33.691 1.264 1.716 1.968 2.643 2.626 9.704 6.887 17.184 16.09 25.409 24.496 2.47 2.524 4.628 5.386 7.218 7.89 2.212-1.363 4.074-2.985 6.004-4.523 4.564-3.64 9.156-7.248 13.767-10.83 4.596-3.568 5.849-3.394 9.508 1.028 4.75 5.736 8.676 12.057 12.821 18.213 7.041 10.458 12.888 21.59 18.096 33.072 1.144 2.52 2.488 4.934 3.212 7.63.69 2.56.137 3.584-2.534 4.249-1.95.487-3.545 1.713-5.397 2.425-6.645 2.554-13.238 5.247-19.85 7.892-.361.145-.706.333-1.119.529 1.243 3.263 2.394 6.52 3.723 9.7a69.197 69.197 0 0 1 3.526 10.998c1.393 5.959 3.413 11.771 4.22 17.867.426 3.228 1.694 6.314 1.645 9.619-.016 1.105.495 1.33 1.49 1.152 1.556-.28 3.147-.381 4.692-.707 4.656-.984 9.423-1.13 14.102-1.897 3.023-.496 5.973-1.413 9.098-1.274 2.818.126 3.263.338 3.726 3.12.824 4.953 1.23 9.94 1.603 14.96.828 11.115.177 22.213.414 33.314.168 7.84-.943 15.602-1.903 23.363-.346 2.792-1.318 3.5-4.02 2.887-8.132-1.849-16.424-2.531-24.682-3.478-4.519-.518-4.43-.49-5.137 4.038-1.25 8.007-2.71 15.958-5.14 23.733-1.621 5.188-3 10.427-5.533 15.289-.714 1.371-.96 2.99-1.422 4.505.88 1.037 2.145 1.076 3.201 1.5 6.8 2.73 13.634 5.368 20.418 8.13 1.278.516 2.657.718 3.865 1.486 2.376 1.508 2.873 2.581 1.736 5.177-1.943 4.438-3.9 8.875-6.052 13.212-3.039 6.115-6.114 12.219-9.451 18.171-3.144 5.614-6.744 10.952-10.671 16.073-2.583 3.372-4.976 6.896-7.327 10.438-.835 1.257-1.847 2.335-2.843 3.419-1.208 1.316-3.407 1.456-4.537.159-1.932-2.219-4.461-3.561-6.758-5.258-4.214-3.114-8.322-6.373-12.474-9.57-.784-.606-1.544-1.25-2.356-1.813-1.03-.715-1.895-.704-2.802.394-7.462 9.019-15.698 17.317-24.128 25.412-3.344 3.21-6.735 6.404-10.536 9.216 1.828 3.065 4.193 5.61 6.534 8.136 3.375 3.642 5.74 8.038 9.055 11.713.857.952 1.633 1.981 2.384 3.022 1.356 1.872 1.247 2.822-.432 4.321-5.562 4.968-11.78 9.039-18.007 13.086-3.808 2.48-7.584 5.013-11.547 7.263-8.614 4.886-17.44 9.35-26.402 13.548-.985.46-2.01.844-3.03 1.221-2.429.9-3.408.64-4.534-1.737-1.478-3.126-3.108-6.199-4.185-9.502-.955-2.925-2.284-5.679-3.64-8.432-1.135-2.303-2.01-4.73-3.085-7.064-.867-1.886-1.051-2.108-2.872-1.154-4.779 2.499-10.135 3.312-15.033 5.433-3.012 1.305-6.276 1.81-9.366 2.823-4.24 1.388-8.633 2.094-12.892 3.382-4.061 1.229-8.283 1.905-12.498 2.439-3.198.402-3.344.478-3.042 3.576.56 5.805 1.655 11.525 2.617 17.27.503 3.016.743 6.086.934 9.143.15 2.354-.197 2.868-2.538 3.17-3.811.492-7.515 1.753-11.44 1.488-1.36-.09-2.764.182-4.124.414-3.164.54-6.33.167-9.499.15-8.438-.046-16.879-.07-25.318.002-6.163.054-12.28-.42-18.387-1.167-.395-.048-.795-.065-1.183-.14-2.493-.488-3.036-1.15-2.676-3.651 1.03-7.137 2.048-14.277 3.224-21.39.37-2.242-.014-4.54.81-6.76.378-1.012-.868-1.153-1.592-1.274-2.73-.458-5.458-1.002-8.211-1.212-3.847-.294-7.564-1.23-11.296-2.045-7.31-1.59-14.528-3.58-21.693-5.741-2.65-.799-5.056-2.251-7.758-2.96-2.368-.623-2.493-.672-3.455 1.742-3.37 8.448-7.495 16.569-10.739 25.073-.802 2.106-1.43 2.377-3.61 1.866-.48-.114-.984-.174-1.428-.371-6.967-3.054-14.067-5.846-20.847-9.272-6.857-3.468-13.849-6.79-19.98-11.554a8.461 8.461 0 0 0-1.518-.923c-4.489-2.15-8.411-5.176-12.527-7.917-3.391-2.259-6.479-4.888-9.775-7.253-2.216-1.59-2.31-2.14-.737-4.322 4.337-6.02 8.787-11.953 13.786-17.453 1.262-1.391 2.327-2.96 3.54-4.4 1.003-1.19.763-2.028-.435-2.936-5.698-4.31-10.714-9.415-16.033-14.158-4.715-4.202-8.755-9.154-13.212-13.66-1.871-1.893-3.18-4.254-5.25-6.098" fill="#181818"/></g><path d="M274.056 107.619c-.053 0 .848 3.033 1.074 4.648.225 1.616.354 5.009.25 5.01-.089 4.875-.572 9.675-2.47 14.246-1.64 3.949-4.187 8.064-8.155 10.056-2.857 1.432-5.316 3.477-7.547 5.736-12.146 12.306-15.889 26.066-11.505 42.842.5 1.91 1.152 3.781 1.716 5.676.173.585.344.984-.503.55-1.146-.59-2.214-1.322-3.348-1.934-16.585-8.959-33.28-9.384-50.09-.63l.061.847c9.17-3.053 18.4-3.497 27.855-1.197 8.24 2.005 15.401 5.75 21.262 11.853 6.511 6.78 11.234 14.582 13.15 23.91.057.286.381 2.106.522 3.886.142 1.78.218 5.064-.066 7.45-.284 2.386-.454 2.954-.6 3.53-4.522 17.83-16.195 28.443-33.68 32.894-6.072 1.545-12.339 1.978-18.605.714-7.538-1.521-13.482-5.065-16.431-12.581-2.116-5.397-4.912-10.408-8.832-14.72-5.747-6.325-12.6-10.533-21.37-11.013-.477-.027-1 .013-1.347-.447-.019-.09-.067-.183-.054-.264.183-.913.872-1.539 1.336-2.29 2.546-4.142 4.048-8.606 4.182-13.483.329-12.143-6.996-23.515-18.587-28.772-.248-.112-1.697-.467-1.697-.467s.47.539 1.116.972c.704.543 1.413 1.084 2.114 1.63 6.46 5.02 10.414 11.68 12.059 19.574 1.843 8.85-1.367 16.344-7.093 22.97-.707.815-1.636 1.026-2.608 1.258-11.564 2.161-24.367 15.67-23.503 29.056.545-.824 1.141-3.623 1.47-4.644 4.8-11.097 13.713-18.17 25.517-19.453 13.53-1.471 25.797 8.405 28.428 22.093.84 4.373.633 8.67-.284 12.973-1.484 6.963-4.794 13.107-8.176 19.324-4.578 8.41-18.803 17.744-26.863 19.81h261.733c.956-3.535 2.756-11.383 3.092-14.82 1.506-15.454.045-30.648-4.25-45.546-1.426-4.782-4.31-10.69-8.36-15.526-1.872-2.234-7.346-7.639-9.685-9.198 1.61 2.374 6.65 7.687 8.088 10.122.423.716 2.019 2.946 2.39 3.777.082.295-.165.387-.32.27-2.257-2.42-6.329-5.2-9.575-6.142-9.244-3.187-20.078 1.59-27.113 9.893-.524.618-3.871 4.896-3.384 4.88.778-.516 1.86-2.14 3.362-3.533 1.42-1.316 3.261-2.407 4.07-2.861 3.767-2.228 7.873-3.336 12.22-3.234 13.85.327 24.894 11.347 24.003 25.192-.73 11.367-8.897 21.935-19.693 25.808-5.408 1.939-11.37 1.542-16.613-.716-4.75-2.046-8.677-5.184-11.873-9.218-5.916-7.468-8.934-16.066-9.667-25.494-1.277-16.444 3.407-30.565 16.315-41.434-.004-.067 1.946-1.467 4.06-2.402 1.866-.825 3.929-1.197 3.926-1.256-.004-.062-2.152.186-4.088.915-2.072.78-3.942 2.045-3.946 1.979-2.903 1.621-5.263 3.86-7.342 6.426-1.876 2.314-1.925 2.312-3.845-.069-1.564-1.937-2.807-4.07-3.939-6.29-1.113-2.18-1.117-4.035 0-6.386 5.864-12.33 5.768-24.687-.518-36.901-.086.096-2.28-3.6-4.12-6.12-1.038-1.419-2.182-2.353-2.23-2.3-.053.059 1.668 2.575 3.172 4.952.659 1.041 1.083 1.873 1.567 2.84.261.524.516 1.053.72 1.604.663 1.802 1.257 3.61 1.615 5.533.38 2.048.584 4.13.493 6.253-.64 14.702-12.512 29.402-26.876 32.907-12.872 3.14-25.085 1.195-36.217-6.06-18.72-12.204-22.602-36.03-8.835-53.453 1.348-1.707 2.972-3.343 4.612-4.773 2.267-1.98 3.21-2.952 7.227-5.143 4.173-2.277 8.853-3.95 8.808-4.008-.047-.059-4.888 1.376-9.046 3.477-4.222 2.134-7.809 4.876-7.809 4.876-11.19 9.247-16.307 21.098-14.21 35.485 1.96 13.44 9.865 22.824 21.8 28.968 3.426 1.766 6.749 2.756 10.82 3.856-3.74-.16-7.387-1.086-10.934-2.05-16.705-5.802-26.836-17.656-31.53-34.435-1.178-4.21-2.04-8.559-1.583-12.928 1.57-15.021 9.39-26.09 22.37-33.83 9.287-5.536 20.182-7.4 30.882-7.495 1-.012 2.001-.085 3.002-.13-3.341-.978-6.684-.994-10.04-1.07-3.274-.076-6.528-.04-9.786.315-1.323.144-5.331.773-6.903 1.13-2.333.53-2.288.85-4.316 1.232.659-3.022 1.624-5.24 1.995-7.252 1.013-5.506.546-8.26-.134-12.592-.104 0-.476-3.386-.869-5.048-.37-1.556-1.34-4.592-1.392-4.592zm-43.646 87.506c2.938.813 9.82 3.419 13.342 6.061 11.698 9.274 17.811 15.214 21.684 33.18 2.371 12.972.131 25.188-5.984 36.562-7.629 14.194-20.078 22.444-35.5 26.309-10.306 2.583-20.64 2.3-30.893-.517-2.45-.672-2.477-.69-2.438-3.178.089-5.738.284-11.48-.44-17.32 1.46 1.215 2.533 2.727 3.994 3.868 4.83 3.77 10.512 4.644 16.3 4.636 8.763-.012 17.179-1.981 24.827-6.336 13.973-7.953 22.606-19.848 24.637-35.901 1.42-14.324-4.15-24.75-12.267-34.477-2.805-3.319-6.06-6.498-10.64-9.452-1.334-.862-3.314-1.752-4.98-2.608a236.27 236.27 0 0 0-1.642-.827zm92.34 38.164c.67.556 2.906-1.115 4.25-1.885 1.186-.68 2.19-1.636 3.327-2.398.644-.43 1.901-1.317 1.973-1.226.354.438.758 1.256.758 1.256 1.213 3.482 2.089 7.04 2.312 10.722 1.012 16.794-5.94 29.81-19.156 39.7-7.792 5.832-16.699 8.934-26.338 10.178-7.016.906-14.013 1.373-21.06.546-.688-.082-1.382-.132-2.062-.261-.268-.052-.504-.28-.834-.473.187-.471.322-.943.552-1.36 3.334-6.028 5.747-12.403 7.184-19.143.792-2.496.896-5.117 1.342-7.993 1.477 7.126-1.695 18.666-2.968 26.449.561-.74.938-1.581 1.41-2.547 1.64-3.366 2.69-4.697 3.326-5.89 7.964 3.729 19.102 2.245 25.181-2.478.312-.241 1.328-1.486 1.328-1.486s-1.101.226-1.553.433c-9.747 4.493-17.987-1.404-22.922-10.444-.61-.972-.76-2.015-.84-3.107-.714-9.513-2.68-18.794-5.084-28.005-.978-3.743-2.564-7.263-3.726-10.933-.204-.47-.507-1.236.466-.443 6.878 4.752 14.382 8.055 22.718 8.967 18.718 2.05 34.688-3.122 46.644-18.364 1.664-1.96 2.936-4.207 3.677-5.843 0 0-.487 3.6-1.53 5.815-2.04 4.333-4.78 7.893-7.902 11.565-.632.744-2.89 2.717-3.533 3.455" fill="#c02b31" fill-rule="nonzero"/><g fill="#0453a5" stroke="none"><path d="M60.628 317.156c5.15 14.424 7.979 26.624 15.685 39.754h382.841c5.53-9.32 7.835-19.025 12.09-29.045l4.165-10.709z" opacity="1"/><path d="M455.104 369.334c-115.804.003-256.239.002-372.043.01-.732 0-1.464.022-2.195.05a217.75 217.75 0 0 0 26.261 29.407c99.071-.007 222.774-.007 321.847-.002 9.582-9.012 17.288-18.874 25.09-29.465zm-308.165 68.06a194.154 185.837 0 0 0 25.263 16.458l191.74-.01a194.154 185.837 0 0 0 25.664-16.445c-80.89-.004-161.778-.004-242.667-.004zm276.258-28.039c-95.374 0-211.035 0-306.411.004-.602 0-1.205.015-1.807.033 6.462 6.864 13.701 13.25 21.629 19.083 81.593-.004 183.473-.004 265.068 0 7.892-5.849 15.095-12.249 21.52-19.121z" fill-rule="nonzero"/></g><path d="M144.433 437.39h246.986v1.955H144.433z" fill="#11aac8" opacity="1" vector-effect="none"/><path d="M474.221 321.663c0 .025-412.638.025-412.638.025-.41-1.605-.797-4.91-.797-4.91s414.684.3 414.563 0c0 0-1.313 3.125-1.128 4.91" fill="#01a9c7" fill-rule="nonzero"/><path d="M82.912 367.829h370.344v3.02H82.912zm32.521 40.953h304.986v1.955H115.433z" fill="#11aac8" opacity="1" vector-effect="none"/><path d="M268.152 46.641a217.442 217.442 0 0 0-217.44 217.443 217.442 217.442 0 0 0 217.44 217.44 217.442 217.442 0 0 0 217.443-217.44A217.442 217.442 0 0 0 268.152 46.64zm0 9.358a208.083 208.083 0 0 1 208.085 208.085 208.083 208.083 0 0 1-112.402 184.702H172.723A208.083 208.083 0 0 1 60.07 264.084 208.083 208.083 0 0 1 268.151 56z" fill="#181818"/></g></svg>