<?xml version="1.0" encoding="UTF-8" standalone="no"?>
<svg
   xmlns:dc="http://purl.org/dc/elements/1.1/"
   xmlns:cc="http://creativecommons.org/ns#"
   xmlns:rdf="http://www.w3.org/1999/02/22-rdf-syntax-ns#"
   xmlns:svg="http://www.w3.org/2000/svg"
   xmlns="http://www.w3.org/2000/svg"
   xmlns:sodipodi="http://sodipodi.sourceforge.net/DTD/sodipodi-0.dtd"
   xmlns:inkscape="http://www.inkscape.org/namespaces/inkscape"
   width="120mm"
   height="120.0006mm"
   viewBox="0 0 120 120.0006"
   version="1.1"
   id="svg3055"
   inkscape:version="1.0.2 (e86c870879, 2021-01-15, custom)"
   sodipodi:docname="FysiksektionenLogga2020.a.svg">
  <defs
     id="defs3049" />
  <sodipodi:namedview
     id="base"
     pagecolor="#ffffff"
     bordercolor="#666666"
     borderopacity="1.0"
     inkscape:pageopacity="0.0"
     inkscape:pageshadow="2"
     inkscape:zoom="0.98994949"
     inkscape:cx="221.07806"
     inkscape:cy="224.80145"
     inkscape:document-units="mm"
     inkscape:current-layer="layer1"
     showgrid="false"
     inkscape:window-width="1920"
     inkscape:window-height="1001"
     inkscape:window-x="-9"
     inkscape:window-y="1341"
     inkscape:window-maximized="1"
     inkscape:document-rotation="0" />
   <style type="text/css">
   @keyframes spin {
      from {transform: rotateZ(0deg);}
      to {transform: rotateZ(360deg);}
   }
   #g844 {
      transform-origin: center;
      transform-box: fill-box;
      animation: spin 1.3s infinite;
      animation-timing-function: cubic-bezier(.7,.3,.3,.7);
   }
  </style>
  <metadata
     id="metadata3052">
    <rdf:RDF>
      <cc:Work
         rdf:about="">
        <dc:format>image/svg+xml</dc:format>
        <dc:type
           rdf:resource="http://purl.org/dc/dcmitype/StillImage" />
        <dc:title />
      </cc:Work>
    </rdf:RDF>
  </metadata>
  <g
     inkscape:label="Layer 1"
     inkscape:groupmode="layer"
     id="layer1"
     transform="translate(-38.939303,-90.435454)">
    <g
       id="g2807"
       style="stroke-width:1.00024"
       transform="matrix(0.29948714,0,0,-0.29948714,318.81302,-40.907186)">
      <path
         id="path2726"
         d="m -729.74079,-521.55341 c -0.0387,-7.6e-4 0.63655,-2.27502 0.80548,-3.48672 0.1689,-1.21171 0.26671,-3.75607 0.18854,-3.75702 -0.0672,-3.65603 -0.4292,-7.2567 -1.85356,-10.68465 -1.23036,-2.96135 -3.13961,-6.04821 -6.11611,-7.54166 -2.14271,-1.07419 -3.9868,-2.60778 -5.65913,-4.30188 -9.11122,-9.23046 -11.91712,-19.55112 -8.62924,-32.13192 0.37478,-1.43383 0.8637,-2.83653 1.28653,-4.25749 0.13053,-0.43866 0.25868,-0.73821 -0.37709,-0.41179 -0.86011,0.44161 -1.66081,0.9911 -2.5107,1.45011 -12.43884,6.71866 -24.96128,7.03808 -37.56764,0.47284 0.0151,-0.2121 0.0306,-0.42438 0.0457,-0.63638 6.87766,2.2894 13.79955,2.62368 20.8911,0.89835 6.18015,-1.50387 11.55119,-4.31247 15.94732,-8.88938 4.8826,-5.08418 8.42454,-10.93658 9.86121,-17.93254 0.0435,-0.21484 0.28634,-1.58063 0.39234,-2.91556 0.10599,-1.33493 0.16303,-3.7978 -0.0499,-5.58702 -0.21295,-1.78921 -0.34078,-2.21548 -0.45056,-2.64799 -3.39104,-13.37202 -12.14589,-21.33182 -25.25953,-24.66891 -4.55418,-1.15937 -9.25379,-1.48484 -13.95374,-0.53652 -5.65298,1.14138 -10.11158,3.79865 -12.32337,9.43555 -1.58715,4.0488 -3.68352,7.8062 -6.62401,11.04107 -4.30909,4.74348 -9.45066,7.89838 -16.0264,8.25991 -0.35867,0.0189 -0.75177,-0.0104 -1.01199,0.33409 -0.0132,0.0672 -0.0502,0.1377 -0.0388,0.19827 0.13629,0.68521 0.6536,1.1536 1.00092,1.71767 1.90898,3.10616 3.0366,6.45423 3.13597,10.11215 0.24702,9.10743 -5.2469,17.63632 -13.9399,21.57883 -0.1854,0.0842 -1.27263,0.35065 -1.27263,0.35065 0,0 0.35243,-0.40402 0.8373,-0.72922 0.5281,-0.40696 1.05884,-0.81297 1.58601,-1.22277 4.84473,-3.76488 7.80914,-8.76029 9.0433,-14.68007 1.38266,-6.63821 -1.02462,-12.25827 -5.31952,-17.22699 -0.53002,-0.61233 -1.22741,-0.77086 -1.95611,-0.94406 -8.67286,-1.62141 -18.27505,-11.75249 -17.62743,-21.79215 0.409,0.61801 0.85643,2.71661 1.10295,3.48265 3.60111,8.32379 10.28397,13.62736 19.13774,14.58987 10.14755,1.10353 19.34757,-6.30394 21.32087,-16.56979 0.63031,-3.2803 0.47458,-6.50316 -0.21352,-9.72952 -1.11299,-5.22236 -3.59432,-9.83006 -6.1319,-14.49307 -3.43252,-6.30751 -14.10154,-13.30798 -20.14688,-14.85795 h 196.29978 c 0.71686,2.65132 2.06701,8.53777 2.31911,11.11616 1.13003,11.58899 0.0344,22.98515 -3.18725,34.15853 -1.0692,3.58676 -3.23284,8.0182 -6.27083,11.64508 -1.40295,1.67507 -5.5082,5.72879 -7.26241,6.89838 1.20748,-1.78022 4.98761,-5.76551 6.06575,-7.59164 0.31684,-0.53662 1.51365,-2.2098 1.79217,-2.83264 0.0614,-0.22146 -0.12281,-0.2897 -0.23984,-0.20235 -1.69205,1.81496 -4.74598,3.90021 -7.18181,4.60625 -6.93255,2.39019 -15.05734,-1.1925 -20.33432,-7.41977 -0.39291,-0.46366 -2.90281,-3.67222 -2.53846,-3.65973 0.58402,0.3868 1.39506,1.60485 2.52272,2.65008 1.06456,0.98693 2.44576,1.80398 3.05228,2.14554 2.82507,1.67139 5.90386,2.50235 9.16524,2.42465 10.387,-0.24513 18.67023,-8.50968 18.00206,-18.89383 -0.54798,-8.52538 -6.67265,-16.45142 -14.77025,-19.356 -4.05544,-1.4537 -8.52735,-1.15557 -12.46069,0.53757 -3.56139,1.53416 -6.50731,3.88713 -8.9046,6.91375 -4.43683,5.60093 -6.70037,12.04863 -7.24929,19.11936 -0.95873,12.33379 2.55507,22.92417 12.23603,31.07666 -0.003,0.0502 1.45888,1.09955 3.04555,1.80085 1.39901,0.6184 2.94658,0.89816 2.94373,0.94207 -0.003,0.0464 -1.6137,-0.13912 -3.06521,-0.68577 -1.55462,-0.58556 -2.95715,-1.53472 -2.96013,-1.48456 -2.17677,-1.21616 -3.94692,-2.89445 -5.50664,-4.82042 -1.40637,-1.7348 -1.44317,-1.73319 -2.88363,0.053 -1.17261,1.45276 -2.10445,3.05164 -2.95433,4.7164 -0.83475,1.63646 -0.83714,3.02676 9.4e-4,4.78985 4.39709,9.2475 4.32552,18.51554 -0.38957,27.67598 -0.0639,-0.0719 -1.71073,2.70052 -3.09065,4.59034 -0.777,1.06397 -1.63581,1.76508 -1.67179,1.72476 -0.0389,-0.0435 1.25146,-1.93127 2.37929,-3.71367 0.49423,-0.78108 0.81259,-1.40487 1.17469,-2.1303 0.19615,-0.39305 0.38772,-0.79027 0.53959,-1.20244 0.49823,-1.35215 0.94348,-2.70724 1.21212,-4.14968 0.28614,-1.53643 0.4378,-3.09916 0.36898,-4.69048 -0.47889,-11.02583 -9.38319,-22.05166 -20.15632,-24.67997 -9.65352,-2.35565 -18.81366,-0.89655 -27.16301,4.54444 -14.04019,9.15286 -16.9509,27.02266 -6.62541,40.09087 1.01078,1.27871 2.2282,2.50679 3.45845,3.57994 1.70077,1.4838 2.40807,2.21378 5.4198,3.85658 3.13105,1.70773 6.64114,2.96174 6.60602,3.00565 -0.0352,0.0445 -3.66568,-1.03207 -6.78347,-2.60777 -3.16698,-1.60059 -5.85738,-3.65727 -5.85738,-3.65727 -8.39193,-6.93444 -12.23036,-15.82287 -10.65835,-26.61399 1.46979,-10.08035 7.39948,-17.11749 16.35076,-21.72562 2.56985,-1.32357 5.06156,-2.06708 8.11437,-2.89199 -2.80496,0.11982 -5.53952,0.81459 -8.19895,1.53747 -12.52969,4.35165 -20.12787,13.24198 -23.64857,25.82657 -0.88301,3.15726 -1.52932,6.41873 -1.18672,9.6962 1.1764,11.26528 7.04108,19.56768 16.77788,25.37209 6.96473,4.15291 15.13618,5.54945 23.1609,5.62138 0.75052,0.009 1.50094,0.0644 2.25146,0.0984 -2.50519,0.73253 -5.0128,0.74436 -7.52934,0.80209 -2.45597,0.0568 -4.89618,0.0293 -7.34079,-0.23642 -0.99171,-0.10751 -3.99713,-0.57911 -5.17675,-0.84742 -1.74955,-0.39788 -1.71556,-0.6378 -3.23676,-0.92437 0.49402,2.26677 1.21806,3.93059 1.49555,5.43852 0.76022,4.13124 0.41074,6.19586 -0.0989,9.44417 -0.0782,0 -0.35794,2.5403 -0.65298,3.78607 -0.27648,1.16761 -1.00446,3.44461 -1.04393,3.44375 z m -32.73431,-65.62945 c 2.20359,-0.60997 7.36501,-2.56518 10.00746,-4.54633 8.77307,-6.95583 13.3571,-11.41008 16.26224,-24.88573 1.77833,-9.72828 0.0987,-18.8907 -4.48766,-27.42082 -5.72207,-10.64631 -15.05884,-16.83316 -26.62508,-19.73205 -7.72944,-1.93733 -15.48059,-1.72518 -23.17027,0.38818 -1.83797,0.50445 -1.85797,0.51682 -1.82862,2.38315 0.0672,4.3043 0.2133,8.61015 -0.32996,12.99019 1.09596,-0.9114 1.89903,-2.04512 2.99593,-2.90164 3.62291,-2.82696 7.8837,-3.48274 12.22494,-3.47706 6.57197,0.009 12.88397,1.48636 18.62024,4.75246 10.47975,5.96531 16.95464,14.88554 18.47743,26.92594 1.06525,10.74332 -3.11241,18.56343 -9.19948,25.85751 -2.10392,2.48938 -4.54645,4.87352 -7.98003,7.089 -1.00118,0.64603 -2.48564,1.31401 -3.73598,1.95654 -0.40877,0.21001 -1.23116,0.62066 -1.23116,0.62066 z m 69.25642,-28.62353 c 0.50119,-0.41709 2.17861,0.83579 3.18652,1.41424 0.88896,0.51012 1.64348,1.22657 2.49489,1.79716 0.48277,0.32359 1.42591,0.98873 1.4803,0.92116 0.26493,-0.32955 0.56748,-0.94283 0.56748,-0.94283 0.91046,-2.61213 1.56777,-5.27962 1.73434,-8.04223 0.75903,-12.595 -4.45404,-22.35783 -14.36688,-29.77495 -5.84416,-4.37342 -12.5241,-6.69917 -19.75289,-7.63323 -5.26211,-0.68048 -10.50999,-1.02983 -15.79483,-0.40898 -0.51674,0.0615 -1.03706,0.098 -1.54717,0.19548 -0.20159,0.0388 -0.37824,0.20916 -0.62526,0.35491 0.14102,0.35295 0.24133,0.707 0.41453,1.02027 2.50045,4.52116 4.31037,9.30145 5.3874,14.35724 0.59403,1.87136 0.67257,3.83784 1.0065,5.99465 1.10752,-5.34502 -1.2714,-13.9995 -2.2265,-19.83751 0.42147,0.55489 0.70457,1.18615 1.0578,1.91036 1.23131,2.52458 2.01779,3.52325 2.49406,4.41695 5.97317,-2.79611 14.32737,-1.68293 18.88683,1.85878 0.23367,0.18152 0.99531,1.11526 0.99531,1.11526 0,0 -0.82599,-0.16903 -1.16445,-0.32509 -7.31054,-3.37078 -13.49016,1.05346 -17.1913,7.83335 -0.45806,0.72875 -0.56928,1.51087 -0.6308,2.33048 -0.53567,7.13414 -2.00861,14.09546 -3.81249,21.0034 -0.73348,2.80709 -1.92231,5.44724 -2.7949,8.20038 -0.15253,0.35113 -0.38011,0.92665 0.35074,0.33135 5.15706,-3.56424 10.78494,-6.04102 17.03701,-6.72529 14.03925,-1.53794 26.0161,2.34164 34.98347,13.77349 1.24841,1.47008 2.20223,3.15452 2.75821,4.38147 0,0 -0.36533,-2.70006 -1.14726,-4.36065 -1.53045,-3.25021 -3.58489,-5.91978 -5.92729,-8.67387 -0.47416,-0.55839 -2.16769,-2.03765 -2.64942,-2.59131"
         style="fill:#c02b31;fill-opacity:1;fill-rule:nonzero;stroke:none;stroke-width:0.946647"
         inkscape:connector-curvature="0"
         sodipodi:nodetypes="cccccccccccccccccccccccccccccccccccccccsccccscscccscsccccccccsssccccccsssaasccccccccccccccccccccscscccccccccccccccccsaccaascccccccccccccscsccccccccccc" />
      <g
         transform="matrix(0.94642334,0,0,0.94642334,-110.07914,-1604.1016)"
         id="g2736"
         style="stroke-width:1.00024">
        <path
           style="opacity:1;fill:#0453a5;fill-opacity:1;stroke:none;stroke-width:2.15253;stroke-linecap:round;stroke-linejoin:round;stroke-miterlimit:4;stroke-dasharray:none;stroke-opacity:1"
           d="m -823.87524,977.78415 c 4.08171,-11.43002 6.32274,-21.0979 12.42988,-31.50281 h 303.38784 c 4.38172,7.38577 6.20811,15.07597 9.57887,23.0164 l 3.30166,8.48641 z"
           id="path2728"
           inkscape:connector-curvature="0"
           sodipodi:nodetypes="cccccc" />
        <path
           sodipodi:nodetypes="ccccccc"
           style="fill:#0453a5;fill-opacity:1;fill-rule:nonzero;stroke:none;stroke-width:1.01191"
           d="m -511.26771,936.43464 c -91.76977,-0.002 -203.05907,-10e-4 -294.83082,-0.007 -0.57908,0 -1.15915,-0.0172 -1.73831,-0.0401 6.21803,-8.38118 13.18355,-16.18101 20.81093,-23.30359 78.51059,0.005 176.54033,0.005 255.05092,0.001 7.59354,7.14173 13.70034,14.95686 19.88332,23.34953 z"
           id="path2730"
           inkscape:connector-curvature="0" />
        <path
           style="fill:#0453a5;fill-opacity:1;fill-rule:nonzero;stroke:none;stroke-width:0.882734"
           d="m -755.47689,882.49988 a 153.86089,147.26852 0 0 1 20.01896,-13.04226 c 50.64963,0.003 101.29924,0.006 151.9482,0.008 a 153.86089,147.26852 0 0 1 20.33741,13.03213 c -64.10216,0.003 -128.20316,0.003 -192.30457,0.003 z"
           id="path2732"
           inkscape:connector-curvature="0" />
        <path
           inkscape:connector-curvature="0"
           id="path2734"
           d="m -536.55305,904.72058 c -75.58041,-0.001 -167.23688,-6.5e-4 -242.81892,-0.004 -0.47693,0 -0.95466,-0.0112 -1.43165,-0.026 5.12108,-5.43887 10.8578,-10.50049 17.13961,-15.12261 64.66033,0.003 145.39637,0.003 210.05671,6.5e-4 6.25394,4.63454 11.96203,9.70609 17.05425,15.15242 z"
           style="fill:#0453a5;fill-opacity:1;fill-rule:nonzero;stroke:none;stroke-width:0.739776"
           sodipodi:nodetypes="ccccccc" />
      </g>
      <g
         transform="matrix(0.98348139,0,0,1.1311521,-579.61608,-682.08727)"
         id="g2740"
         style="stroke-width:1.00024">
        <path
           sodipodi:nodetypes="ccccc"
           inkscape:connector-curvature="0"
           id="path2738"
           style="fill:#01a9c7;fill-opacity:1;fill-rule:nonzero;stroke:none;stroke-width:1.00024"
           d="m 0,0 c 0,-0.016 -314.678,-0.016 -314.678,-0.016 -0.312,1.064 -0.608,3.255 -0.608,3.255 0,0 316.23764417,-0.198616 316.146,0 0,0 -1.001,-2.072 -0.86,-3.255" />
      </g>
      <rect
         transform="scale(1,-1)"
         y="716.71149"
         x="-873.09882"
         height="2.2652476"
         width="277.75876"
         id="rect2742"
         style="opacity:1;vector-effect:none;fill:#11aac8;fill-opacity:1;stroke:none;stroke-width:2.43894;stroke-linecap:butt;stroke-linejoin:miter;stroke-miterlimit:4;stroke-dasharray:none;stroke-dashoffset:0;stroke-opacity:1" />
      <rect
         style="opacity:1;vector-effect:none;fill:#11aac8;fill-opacity:1;stroke:none;stroke-width:1.78054;stroke-linecap:butt;stroke-linejoin:miter;stroke-miterlimit:4;stroke-dasharray:none;stroke-dashoffset:0;stroke-opacity:1"
         id="rect2744"
         width="228.74008"
         height="1.466025"
         x="-848.7077"
         y="747.42657"
         transform="scale(1,-1)" />
      <path
         style="fill:#181818;fill-opacity:1;stroke:none;stroke-width:0.709985;stroke-linecap:butt;stroke-linejoin:miter;stroke-miterlimit:4;stroke-dasharray:none;stroke-opacity:1"
         d="m -734.16817,-475.82075 a 163.08155,163.08154 0 0 1 -163.08057,-163.08196 163.08155,163.08154 0 0 1 163.08057,-163.08058 163.08155,163.08154 0 0 1 163.08196,163.08058 163.08155,163.08154 0 0 1 -163.08196,163.08196 z m 0,-7.01776 a 156.06323,156.06321 0 0 0 156.06419,-156.0642 156.06323,156.06321 0 0 0 -84.30192,-138.52671 h -143.33461 a 156.06323,156.06321 0 0 0 -84.49048,138.52671 156.06323,156.06321 0 0 0 156.06282,156.0642 z"
         id="path2746"
         inkscape:connector-curvature="0" />
    </g>
    <g id="g844">
      <path
         style="fill:none;fill-opacity:1;stroke:#000000;stroke-width:0.5;stroke-linecap:butt;stroke-linejoin:round;stroke-miterlimit:4;stroke-dasharray:none;stroke-dashoffset:0;stroke-opacity:1;paint-order:stroke markers fill"
         d="m 107.77108,91.341639 -1.07512,7.19387 a 52.476562,52.476421 89.38417 0 1 11.45236,3.134931 l 2.68959,-6.827353 a 59.74979,59.749961 0 0 1 15.29664,8.831743 l -4.56844,5.74324 a 52.476562,52.476421 89.38417 0 1 8.40816,8.37699 l 5.72609,-4.55463 a 59.74979,59.749961 0 0 1 8.83144,15.29693 l -6.81168,2.68293 a 52.476562,52.476421 89.38417 0 1 3.11118,11.4604 l 7.20183,-1.07654 a 59.74979,59.749961 0 0 1 -2.5e-4,17.66321 l -7.19335,-1.07506 a 52.476562,52.476421 89.38417 0 1 -3.13542,11.45232 l 6.82783,2.68967 a 59.74979,59.749961 0 0 1 -8.83171,15.29669 l -5.74324,-4.56845 a 52.476562,52.476421 89.38417 0 1 -8.37697,8.40819 l 4.55463,5.7261 a 59.74979,59.749961 0 0 1 -15.29689,8.83146 l -2.683,-6.8112 a 52.476562,52.476421 89.38417 0 1 -11.46028,3.11069 l 1.07653,7.20185 a 59.74979,59.749961 0 0 1 -17.663228,2.5e-4 l 1.075126,-7.19387 a 52.476562,52.476421 89.38417 0 1 -11.452365,-3.13494 l -2.689595,6.82736 a 59.74979,59.749961 0 0 1 -15.296635,-8.83174 l 4.568434,-5.74325 a 52.476562,52.476421 89.38417 0 1 -8.408734,-8.37656 l -5.725514,4.55421 a 59.74979,59.749961 0 0 1 -8.831435,-15.29693 l 6.811182,-2.68301 a 52.476562,52.476421 89.38417 0 1 -3.110683,-11.46032 l -7.201833,1.07654 a 59.74979,59.749961 0 0 1 -2.46e-4,-17.66328 l 7.193849,1.07513 a 52.476562,52.476421 89.38417 0 1 3.134926,-11.4524 l -6.827333,-2.6896 a 59.74979,59.749961 0 0 1 8.831711,-15.29668 l 5.743232,4.56844 a 52.476562,52.476421 89.38417 0 1 8.376544,-8.40875 l -4.554202,-5.72553 a 59.74979,59.749961 0 0 1 15.296884,-8.831465 l 2.683,6.811205 a 52.476562,52.476421 89.38417 0 1 11.460292,-3.110694 l -1.076533,-7.201854 a 59.74979,59.749961 0 0 1 17.663226,-2.43e-4 z"
         id="path2764"
         inkscape:connector-curvature="0" />
    </g>
  </g>
</svg>
